<svg xmlns="http://www.w3.org/2000/svg" width="82" height="40" fill="none" viewBox="0 0 82 40">
  <path fill="#fff" d="M23.663 10.442h12.38v.986H24.798v7.422h10.575v.986H24.798v8.149h11.374v.986H23.663V10.442Zm13.49 0h1.315l5.829 8.149 5.957-8.149L58.358.092 45.045 19.447l6.86 9.524h-1.367l-6.241-8.667-6.267 8.667h-1.342l6.912-9.524-6.447-9.005Zm15.242.986v-.986h14.108v.986h-6.5v17.543H58.87V11.428h-6.473Zm-44.22-.986h1.42l19.56 29.335L21.07 28.97 9.362 11.844 9.31 28.97H8.176V10.442ZM66.39 27.687a.401.401 0 0 1-.406-.412c0-.233.174-.413.406-.413a.4.4 0 0 1 .405.413.4.4 0 0 1-.405.412Zm1.115-1.086h.607c.009.33.25.551.602.551.395 0 .618-.237.618-.684v-2.824h.619v2.827c0 .804-.464 1.266-1.232 1.266-.72 0-1.214-.449-1.214-1.136Zm3.254-.035h.613c.052.379.422.62.955.62.496 0 .86-.258.86-.612 0-.305-.23-.488-.758-.612l-.514-.125c-.72-.169-1.048-.518-1.048-1.105 0-.712.58-1.186 1.448-1.186.81 0 1.4.474 1.436 1.147h-.602c-.058-.368-.378-.598-.842-.598-.488 0-.814.235-.814.595 0 .286.21.45.73.57l.438.109c.817.191 1.154.523 1.154 1.124 0 .765-.592 1.244-1.535 1.244-.883 0-1.477-.457-1.521-1.172Z"/>
</svg>
