<svg xmlns="http://www.w3.org/2000/svg" width="264" height="40" fill="none" viewBox="0 0 264 40">
  <path fill="#38BDF8" fill-rule="evenodd" d="M33.517 5C26.712 5 22.46 8.382 20.758 15.146c2.552-3.382 5.529-4.65 8.931-3.805 1.941.482 3.329 1.882 4.864 3.432 2.502 2.524 5.398 5.445 11.722 5.445 6.804 0 11.057-3.382 12.758-10.145-2.551 3.382-5.528 4.65-8.93 3.804-1.942-.482-3.33-1.882-4.865-3.431C42.736 7.92 39.841 5 33.517 5ZM20.758 20.218C13.954 20.218 9.701 23.6 8 30.364c2.552-3.382 5.529-4.65 8.93-3.805 1.942.482 3.33 1.882 4.865 3.432 2.502 2.524 5.397 5.445 11.722 5.445 6.804 0 11.057-3.381 12.758-10.145-2.552 3.382-5.529 4.65-8.931 3.805-1.941-.483-3.329-1.883-4.864-3.432-2.502-2.524-5.398-5.446-11.722-5.446Z" clip-rule="evenodd"/>
  <path fill="#fff" fill-rule="evenodd" d="M84.546 17.825h-4.453v8.567c0 2.285 1.508 2.249 4.453 2.106v3.463c-5.962.714-8.332-.928-8.332-5.569v-8.567H72.91v-3.713h3.304V9.318l3.88-1.143v5.937h4.452v3.713Zm16.974-3.713h3.878v17.849h-3.878v-2.57c-1.365 1.891-3.484 3.034-6.285 3.034-4.884 0-8.942-4.105-8.942-9.389 0-5.318 4.058-9.388 8.942-9.388 2.801 0 4.92 1.142 6.285 2.999v-2.535Zm-5.674 14.636c3.232 0 5.674-2.392 5.674-5.712s-2.442-5.711-5.674-5.711-5.674 2.392-5.674 5.711c0 3.32 2.442 5.712 5.674 5.712Zm16.016-17.313c-1.364 0-2.477-1.142-2.477-2.463a2.475 2.475 0 0 1 2.477-2.463 2.476 2.476 0 0 1 2.478 2.463c0 1.32-1.113 2.463-2.478 2.463Zm-1.939 20.526V14.112h3.879v17.849h-3.879Zm8.368 0V5.9h3.878v26.06h-3.878v.001Zm29.053-17.849h4.094L145.8 31.961h-3.807l-3.735-12.03-3.771 12.03h-3.806l-5.639-17.849h4.094l3.484 12.315 3.771-12.315h3.699l3.734 12.315 3.52-12.315Zm8.906-2.677c-1.365 0-2.478-1.142-2.478-2.463a2.476 2.476 0 0 1 2.478-2.463 2.476 2.476 0 0 1 2.478 2.463c0 1.32-1.113 2.463-2.478 2.463Zm-1.939 20.526V14.112h3.878v17.849h-3.878Zm17.812-18.313c4.022 0 6.895 2.713 6.895 7.354V31.96h-3.878V21.394c0-2.713-1.58-4.14-4.022-4.14-2.55 0-4.561 1.499-4.561 5.14v9.567h-3.879V14.112h3.879v2.285c1.185-1.856 3.124-2.749 5.566-2.749Zm25.282-6.675h3.879V31.96h-3.879v-2.57c-1.364 1.892-3.483 3.034-6.284 3.034-4.884 0-8.942-4.105-8.942-9.389 0-5.318 4.058-9.388 8.942-9.388 2.801 0 4.92 1.142 6.284 2.999V6.973Zm-5.674 21.775c3.232 0 5.674-2.392 5.674-5.712s-2.442-5.711-5.674-5.711-5.674 2.392-5.674 5.711c0 3.32 2.442 5.712 5.674 5.712Zm22.553 3.677c-5.423 0-9.481-4.105-9.481-9.389 0-5.318 4.058-9.388 9.481-9.388 3.519 0 6.572 1.82 8.008 4.605l-3.34 1.928c-.79-1.678-2.549-2.749-4.704-2.749-3.16 0-5.566 2.392-5.566 5.604 0 3.213 2.406 5.605 5.566 5.605 2.155 0 3.914-1.107 4.776-2.749l3.34 1.892c-1.508 2.82-4.561 4.64-8.08 4.64v.001Zm14.472-13.387c0 3.249 9.661 1.285 9.661 7.89 0 3.57-3.125 5.497-7.003 5.497-3.591 0-6.177-1.607-7.326-4.177l3.34-1.927c.574 1.606 2.011 2.57 3.986 2.57 1.724 0 3.052-.571 3.052-2 0-3.176-9.66-1.391-9.66-7.781 0-3.356 2.909-5.462 6.572-5.462 2.945 0 5.387 1.357 6.644 3.713l-3.268 1.82c-.647-1.392-1.904-2.035-3.376-2.035-1.401 0-2.622.607-2.622 1.892Zm16.556 0c0 3.249 9.66 1.285 9.66 7.89 0 3.57-3.124 5.497-7.003 5.497-3.591 0-6.176-1.607-7.326-4.177l3.34-1.927c.575 1.606 2.011 2.57 3.986 2.57 1.724 0 3.053-.571 3.053-2 0-3.176-9.66-1.391-9.66-7.781 0-3.356 2.908-5.462 6.572-5.462 2.944 0 5.386 1.357 6.643 3.713l-3.268 1.82c-.646-1.392-1.903-2.035-3.375-2.035-1.401 0-2.622.607-2.622 1.892Z" clip-rule="evenodd"/>
</svg>
